<?xml version="1.0" encoding="UTF-8" standalone="no"?>
<!-- Created with Inkscape (http://www.inkscape.org/) -->

<svg
   xmlns:dc="http://purl.org/dc/elements/1.1/"
   xmlns:cc="http://creativecommons.org/ns#"
   xmlns:rdf="http://www.w3.org/1999/02/22-rdf-syntax-ns#"
   xmlns:svg="http://www.w3.org/2000/svg"
   xmlns="http://www.w3.org/2000/svg"
   xmlns:sodipodi="http://sodipodi.sourceforge.net/DTD/sodipodi-0.dtd"
   xmlns:inkscape="http://www.inkscape.org/namespaces/inkscape"
   width="473.57501"
   height="126.89266"
   viewBox="0 0 125.30006 33.573683"
   version="1.1"
   id="svg6115"
   inkscape:version="0.92.1 r"
   sodipodi:docname="horizontal white.svg"
   inkscape:export-filename="/home/anxhelo/gpredict/icon color.png"
   inkscape:export-xdpi="177.61"
   inkscape:export-ydpi="177.61">
  <defs
     id="defs6109" />
  <sodipodi:namedview
     id="base"
     pagecolor="#ffffff"
     bordercolor="#666666"
     borderopacity="1.0"
     inkscape:pageopacity="0.0"
     inkscape:pageshadow="2"
     inkscape:zoom="0.49497475"
     inkscape:cx="390.57863"
     inkscape:cy="339.15461"
     inkscape:document-units="mm"
     inkscape:current-layer="layer1"
     showgrid="false"
     fit-margin-top="0"
     fit-margin-left="0"
     fit-margin-right="0"
     fit-margin-bottom="0"
     units="px"
     inkscape:window-width="1366"
     inkscape:window-height="744"
     inkscape:window-x="0"
     inkscape:window-y="0"
     inkscape:window-maximized="1" />
  <metadata
     id="metadata6112">
    <rdf:RDF>
      <cc:Work
         rdf:about="">
        <dc:format>image/svg+xml</dc:format>
        <dc:type
           rdf:resource="http://purl.org/dc/dcmitype/StillImage" />
        <dc:title />
      </cc:Work>
    </rdf:RDF>
  </metadata>
  <g
     inkscape:label="Layer 1"
     inkscape:groupmode="layer"
     id="layer1"
     transform="translate(-225.74954,-72.700508)">
    <g
       id="g20"
       transform="matrix(0.35277777,0,0,-0.35277777,254.40647,101.35744)">
      <path
         style="fill:#ffffff;fill-opacity:1;fill-rule:nonzero;stroke:none;stroke-width:1.33333325"
         d="M 63.447266 0 C 47.209933 0 30.970698 6.1933649 18.582031 18.582031 C -6.1953015 43.359364 -6.1953015 83.533214 18.582031 108.31055 C 43.359364 133.08788 83.533214 133.08788 108.31055 108.31055 C 133.08788 83.533214 133.08788 43.359364 108.31055 18.582031 C 95.92188 6.1933649 79.684599 0 63.447266 0 z M 40.675781 22.345703 L 65.279297 46.951172 L 39.474609 57.767578 L 22.365234 40.65625 L 40.675781 22.345703 z M 81.085938 46.023438 L 60.449219 95.248047 L 54.408203 72.701172 L 31.861328 66.660156 L 81.085938 46.023438 z M 80.160156 61.832031 L 104.76367 86.435547 L 86.453125 104.74609 L 69.341797 87.636719 L 80.160156 61.832031 z "
         transform="matrix(0.75000002,0,0,-0.75000002,-81.232244,81.23225)"
         id="path22" />
    </g>
    <g
       id="g24"
       transform="matrix(0.35277777,0,0,-0.35277777,234.17957,90.337789)" />
    <g
       id="g28"
       transform="matrix(0.35277777,0,0,-0.35277777,236.51147,78.613009)" />
    <g
       id="g32"
       transform="matrix(0.35277777,0,0,-0.35277777,253.46833,95.569839)" />
    <g
       id="g36"
       transform="matrix(0.35277777,0,0,-0.35277777,274.6949,91.444209)"
       style="fill:#ffffff">
      <path
         d="m 0,0 v 14.142 c -1.12,1.33 -2.8,2.94 -6.23,2.94 -4.551,0 -7.141,-3.501 -7.141,-9.941 0,-5.881 2.31,-10.011 7.141,-10.011 3.009,0 4.83,0.979 6.23,2.87 M -12.812,-17.222 C -3.15,-16.452 0,-15.052 0,-9.871 v 0.98 c -2.17,-2.171 -4.9,-2.73 -7.701,-2.73 -8.541,0 -14.771,6.301 -14.771,18.762 0,11.55 6.09,18.692 14.841,18.692 3.221,0 5.74,-0.91 7.631,-2.73 v 1.889 H 9.101 V -5.951 c 0,-12.321 -3.361,-17.781 -16.872,-18.832 z"
         style="fill:#ffffff;fill-opacity:1;fill-rule:nonzero;stroke:none"
         id="path38"
         inkscape:connector-curvature="0" />
    </g>
    <g
       id="g40"
       transform="matrix(0.35277777,0,0,-0.35277777,288.10391,88.949929)"
       style="fill:#ffffff">
      <path
         d="m 0,0 c 0,6.021 -2.45,10.012 -7.141,10.012 -3.009,0 -4.9,-1.12 -6.23,-2.871 V -7 c 0.91,-1.471 3.08,-2.94 6.23,-2.94 C -2.59,-9.94 0,-6.37 0,0 m -13.371,-15.262 v -12.461 l -9.101,-4.131 v 49.776 h 9.101 v -2.59 c 1.61,2.03 4.131,3.431 7.701,3.431 8.82,0 14.772,-6.652 14.772,-18.763 0,-11.761 -6.301,-18.691 -14.842,-18.691 -3.571,0 -6.021,1.4 -7.631,3.429"
         style="fill:#ffffff;fill-opacity:1;fill-rule:nonzero;stroke:none"
         id="path42"
         inkscape:connector-curvature="0" />
    </g>
    <g
       id="g44"
       transform="matrix(0.35277777,0,0,-0.35277777,292.9677,82.627519)"
       style="fill:#ffffff">
      <path
         d="m 0,0 h 9.101 v -3.15 c 1.049,2.24 3.08,3.991 6.65,3.991 3.011,0 5.251,-1.051 7.281,-2.731 l -1.261,-8.331 c -1.679,1.191 -3.709,2.101 -6.51,2.101 -3.15,0 -6.16,-1.541 -6.16,-7.701 V -35.773 H 0 Z"
         style="fill:#ffffff;fill-opacity:1;fill-rule:nonzero;stroke:none"
         id="path46"
         inkscape:connector-curvature="0" />
    </g>
    <g
       id="g48"
       transform="matrix(0.35277777,0,0,-0.35277777,309.24197,87.467879)"
       style="fill:#ffffff">
      <path
         d="m 0,0 c -0.561,4.2 -3.291,6.58 -6.931,6.58 -4.27,0 -7.14,-2.1 -7.701,-6.58 z m -23.663,-4.131 c 0,11.551 6.511,18.693 16.732,18.693 8.821,0 15.822,-5.391 15.822,-16.873 0,-1.4 0,-3.43 -0.281,-5.39 h -23.312 c 0.35,-4.62 3.85,-7.211 7.771,-7.211 3.29,0 5.67,1.12 7.701,3.711 l 5.6,-5.671 c -3.01,-3.641 -7.35,-6.021 -13.301,-6.021 -10.361,0 -16.732,7 -16.732,18.762"
         style="fill:#ffffff;fill-opacity:1;fill-rule:nonzero;stroke:none"
         id="path50"
         inkscape:connector-curvature="0" />
    </g>
    <g
       id="g52"
       transform="matrix(0.35277777,0,0,-0.35277777,321.21853,91.444209)"
       style="fill:#ffffff">
      <path
         d="m 0,0 v 14.142 c -0.98,1.33 -3.08,2.94 -6.23,2.94 -4.551,0 -7.141,-3.501 -7.141,-9.941 0,-6.161 2.45,-10.011 7.141,-10.011 3.009,0 4.9,0.979 6.23,2.87 m -22.473,7.141 c 0,11.55 6.301,18.692 14.842,18.692 3.57,0 6.021,-1.4 7.631,-3.431 v 13.232 l 9.101,4.13 V -10.781 H 0 v 2.59 c -1.47,-2.17 -4.061,-3.43 -7.701,-3.43 -8.961,0 -14.772,6.65 -14.772,18.762"
         style="fill:#ffffff;fill-opacity:1;fill-rule:nonzero;stroke:none"
         id="path54"
         inkscape:connector-curvature="0" />
    </g>
    <path
       d="m 326.7243,82.627379 h 3.21098 v 12.61992 h -3.21098 z m -0.27129,-3.3588 c 0,-1.03752 0.83961,-1.852084 1.87678,-1.852084 1.06221,0 1.87713,0.814564 1.87713,1.852084 0,1.03717 -0.81492,1.87678 -1.87713,1.87678 -1.03717,0 -1.87678,-0.83961 -1.87678,-1.87678"
       style="fill:#ffffff;fill-opacity:1;fill-rule:nonzero;stroke:none;stroke-width:0.35277775"
       id="path56"
       inkscape:connector-curvature="0" />
    <g
       id="g58"
       transform="matrix(0.35277777,0,0,-0.35277777,331.61376,88.949929)"
       style="fill:#ffffff">
      <path
         d="m 0,0 c 0,11.621 6.441,18.763 16.312,18.763 7.281,0 12.601,-3.221 14.912,-10.502 l -8.681,-2.87 c -1.051,2.73 -3.15,4.621 -6.021,4.621 -4.411,0 -7.281,-3.991 -7.281,-10.012 0,-6.09 2.87,-9.94 7.071,-9.94 3.081,0 5.25,1.82 6.3,5.18 l 8.682,-2.591 c -2.171,-7.56 -7.211,-11.34 -14.982,-11.34 C 6.441,-18.691 0,-11.761 0,0"
         style="fill:#ffffff;fill-opacity:1;fill-rule:nonzero;stroke:none"
         id="path60"
         inkscape:connector-curvature="0" />
    </g>
    <g
       id="g62"
       transform="matrix(0.35277777,0,0,-0.35277777,344.87528,92.209699)"
       style="fill:#ffffff">
      <path
         d="m 0,0 v 19.182 h -5.11 v 7.98 H 0 v 10.432 l 9.101,4.34 V 27.162 h 7.981 v -7.98 H 9.101 V 1.33 c 0,-1.751 0.91,-2.801 2.52,-2.801 1.89,0 3.851,0.491 5.881,1.54 l -1.051,-7.91 c -2.17,-1.051 -4.76,-1.61 -7.77,-1.61 C 2.521,-9.451 0,-5.951 0,0"
         style="fill:#ffffff;fill-opacity:1;fill-rule:nonzero;stroke:none"
         id="path64"
         inkscape:connector-curvature="0" />
    </g>
  </g>
</svg>
