<?xml version="1.0" encoding="UTF-8" standalone="no"?>
<!-- Created with Inkscape (http://www.inkscape.org/) -->

<svg
   xmlns:dc="http://purl.org/dc/elements/1.1/"
   xmlns:cc="http://creativecommons.org/ns#"
   xmlns:rdf="http://www.w3.org/1999/02/22-rdf-syntax-ns#"
   xmlns:svg="http://www.w3.org/2000/svg"
   xmlns="http://www.w3.org/2000/svg"
   xmlns:sodipodi="http://sodipodi.sourceforge.net/DTD/sodipodi-0.dtd"
   xmlns:inkscape="http://www.inkscape.org/namespaces/inkscape"
   width="318.54666"
   height="264.60413"
   viewBox="0 0 84.282141 70.009841"
   version="1.1"
   id="svg6115"
   inkscape:version="0.92.1 r"
   sodipodi:docname="vertical white.svg"
   inkscape:export-filename="/home/anxhelo/gpredict/horizontal white.png"
   inkscape:export-xdpi="177.61"
   inkscape:export-ydpi="177.61">
  <defs
     id="defs6109" />
  <sodipodi:namedview
     id="base"
     pagecolor="#ffffff"
     bordercolor="#666666"
     borderopacity="1.0"
     inkscape:pageopacity="0.0"
     inkscape:pageshadow="2"
     inkscape:zoom="0.7"
     inkscape:cx="-138.35695"
     inkscape:cy="119.68387"
     inkscape:document-units="mm"
     inkscape:current-layer="layer1"
     showgrid="false"
     fit-margin-top="0"
     fit-margin-left="0"
     fit-margin-right="0"
     fit-margin-bottom="0"
     units="px"
     inkscape:window-width="1366"
     inkscape:window-height="744"
     inkscape:window-x="0"
     inkscape:window-y="0"
     inkscape:window-maximized="1" />
  <metadata
     id="metadata6112">
    <rdf:RDF>
      <cc:Work
         rdf:about="">
        <dc:format>image/svg+xml</dc:format>
        <dc:type
           rdf:resource="http://purl.org/dc/dcmitype/StillImage" />
        <dc:title></dc:title>
      </cc:Work>
    </rdf:RDF>
  </metadata>
  <g
     inkscape:label="Layer 1"
     inkscape:groupmode="layer"
     id="layer1"
     transform="translate(-264.32387,-82.761859)">
    <g
       id="g66"
       transform="matrix(0.35277777,0,0,-0.35277777,327.24983,103.54682)">
      <path
         style="fill:#ffffff;fill-opacity:1;fill-rule:nonzero;stroke:none;stroke-width:1.33333325"
         d="M 159.27344 0 C 115.88811 0 80.714844 35.171308 80.714844 78.556641 C 80.714844 121.94197 115.88811 157.11523 159.27344 157.11523 C 202.6601 157.11523 237.83008 121.94197 237.83008 78.556641 C 237.83008 35.171308 202.6601 -9.4739031e-15 159.27344 0 z M 131.07812 27.667969 L 161.54297 58.132812 L 129.5918 71.525391 L 108.40625 50.339844 L 131.07812 27.667969 z M 181.11523 56.984375 L 155.5625 117.93359 L 148.08203 90.017578 L 120.16602 82.537109 L 181.11523 56.984375 z M 179.9668 76.558594 L 210.43164 107.02148 L 187.75977 129.69336 L 166.57422 108.50781 L 179.9668 76.558594 z "
         transform="matrix(0.75000002,0,0,-0.75000002,-178.3728,58.918001)"
         id="path68" />
    </g>
    <g
       id="g70"
       transform="matrix(0.35277777,0,0,-0.35277777,296.11768,104.59979)" />
    <g
       id="g74"
       transform="matrix(0.35277777,0,0,-0.35277777,299.00499,90.082496)" />
    <g
       id="g78"
       transform="matrix(0.35277777,0,0,-0.35277777,320.00049,111.078)" />
    <g
       id="g82"
       transform="matrix(0.35277777,0,0,-0.35277777,272.25149,144.02857)"
       style="fill:#ffffff">
      <path
         d="m 0,0 v 14.142 c -1.12,1.33 -2.8,2.94 -6.23,2.94 -4.551,0 -7.141,-3.501 -7.141,-9.941 0,-5.881 2.31,-10.011 7.141,-10.011 3.009,0 4.83,0.979 6.23,2.87 M -12.812,-17.222 C -3.15,-16.452 0,-15.052 0,-9.871 v 0.98 c -2.17,-2.171 -4.9,-2.73 -7.701,-2.73 -8.541,0 -14.771,6.301 -14.771,18.762 0,11.55 6.09,18.692 14.841,18.692 3.221,0 5.74,-0.91 7.631,-2.73 v 1.889 H 9.101 V -5.951 c 0,-12.321 -3.361,-17.781 -16.872,-18.832 z"
         style="fill:#ffffff;fill-opacity:1;fill-rule:nonzero;stroke:none"
         id="path84"
         inkscape:connector-curvature="0" />
    </g>
    <g
       id="g86"
       transform="matrix(0.35277777,0,0,-0.35277777,285.66047,141.53432)"
       style="fill:#ffffff">
      <path
         d="m 0,0 c 0,6.021 -2.45,10.012 -7.141,10.012 -3.009,0 -4.9,-1.12 -6.23,-2.871 V -7 c 0.91,-1.471 3.08,-2.94 6.23,-2.94 C -2.59,-9.94 0,-6.37 0,0 m -13.371,-15.262 v -12.461 l -9.101,-4.131 v 49.776 h 9.101 v -2.59 c 1.61,2.03 4.131,3.431 7.701,3.431 8.82,0 14.772,-6.652 14.772,-18.763 0,-11.761 -6.301,-18.691 -14.842,-18.691 -3.571,0 -6.021,1.4 -7.631,3.429"
         style="fill:#ffffff;fill-opacity:1;fill-rule:nonzero;stroke:none"
         id="path88"
         inkscape:connector-curvature="0" />
    </g>
    <g
       id="g90"
       transform="matrix(0.35277777,0,0,-0.35277777,290.52425,135.21191)"
       style="fill:#ffffff">
      <path
         d="m 0,0 h 9.101 v -3.15 c 1.049,2.24 3.08,3.991 6.65,3.991 3.011,0 5.251,-1.051 7.281,-2.731 l -1.261,-8.331 c -1.679,1.191 -3.709,2.101 -6.51,2.101 -3.15,0 -6.16,-1.541 -6.16,-7.701 V -35.773 H 0 Z"
         style="fill:#ffffff;fill-opacity:1;fill-rule:nonzero;stroke:none"
         id="path92"
         inkscape:connector-curvature="0" />
    </g>
    <g
       id="g94"
       transform="matrix(0.35277777,0,0,-0.35277777,306.79856,140.05227)"
       style="fill:#ffffff">
      <path
         d="m 0,0 c -0.561,4.2 -3.291,6.58 -6.931,6.58 -4.27,0 -7.14,-2.1 -7.701,-6.58 z m -23.663,-4.131 c 0,11.551 6.511,18.693 16.732,18.693 8.821,0 15.822,-5.391 15.822,-16.873 0,-1.4 0,-3.43 -0.281,-5.39 h -23.312 c 0.35,-4.62 3.85,-7.211 7.771,-7.211 3.29,0 5.67,1.12 7.701,3.711 l 5.6,-5.671 c -3.01,-3.641 -7.35,-6.021 -13.301,-6.021 -10.361,0 -16.732,7 -16.732,18.762"
         style="fill:#ffffff;fill-opacity:1;fill-rule:nonzero;stroke:none"
         id="path96"
         inkscape:connector-curvature="0" />
    </g>
    <g
       id="g98"
       transform="matrix(0.35277777,0,0,-0.35277777,318.77491,144.02857)"
       style="fill:#ffffff">
      <path
         d="m 0,0 v 14.142 c -0.98,1.33 -3.08,2.94 -6.23,2.94 -4.551,0 -7.141,-3.501 -7.141,-9.941 0,-6.161 2.45,-10.011 7.141,-10.011 3.009,0 4.9,0.979 6.23,2.87 m -22.473,7.141 c 0,11.55 6.301,18.692 14.842,18.692 3.57,0 6.021,-1.4 7.631,-3.431 v 13.232 l 9.101,4.13 V -10.781 H 0 v 2.59 c -1.47,-2.17 -4.061,-3.43 -7.701,-3.43 -8.961,0 -14.772,6.65 -14.772,18.762"
         style="fill:#ffffff;fill-opacity:1;fill-rule:nonzero;stroke:none"
         id="path100"
         inkscape:connector-curvature="0" />
    </g>
    <path
       d="m 324.28071,135.21191 h 3.21098 v 12.61992 h -3.21098 z m -0.27129,-3.35915 c 0,-1.03716 0.83961,-1.85208 1.87678,-1.85208 1.06221,0 1.87713,0.81492 1.87713,1.85208 0,1.03752 -0.81492,1.87713 -1.87713,1.87713 -1.03717,0 -1.87678,-0.83961 -1.87678,-1.87713"
       style="fill:#ffffff;fill-opacity:1;fill-rule:nonzero;stroke:none;stroke-width:0.35277775"
       id="path102"
       inkscape:connector-curvature="0" />
    <g
       id="g104"
       transform="matrix(0.35277777,0,0,-0.35277777,329.17014,141.53432)"
       style="fill:#ffffff">
      <path
         d="m 0,0 c 0,11.621 6.441,18.763 16.312,18.763 7.281,0 12.601,-3.221 14.912,-10.502 l -8.681,-2.87 c -1.051,2.73 -3.15,4.621 -6.021,4.621 -4.411,0 -7.281,-3.991 -7.281,-10.012 0,-6.09 2.87,-9.94 7.071,-9.94 3.081,0 5.25,1.82 6.3,5.18 l 8.682,-2.591 c -2.171,-7.56 -7.211,-11.34 -14.982,-11.34 C 6.441,-18.691 0,-11.761 0,0"
         style="fill:#ffffff;fill-opacity:1;fill-rule:nonzero;stroke:none"
         id="path106"
         inkscape:connector-curvature="0" />
    </g>
    <g
       id="g108"
       transform="matrix(0.35277777,0,0,-0.35277777,342.43169,144.7941)"
       style="fill:#ffffff">
      <path
         d="m 0,0 v 19.182 h -5.11 v 7.98 H 0 v 10.432 l 9.101,4.34 V 27.162 h 7.981 v -7.98 H 9.101 V 1.33 c 0,-1.751 0.91,-2.801 2.52,-2.801 1.89,0 3.851,0.491 5.881,1.54 l -1.051,-7.91 c -2.17,-1.051 -4.76,-1.61 -7.77,-1.61 C 2.521,-9.451 0,-5.951 0,0"
         style="fill:#ffffff;fill-opacity:1;fill-rule:nonzero;stroke:none"
         id="path110"
         inkscape:connector-curvature="0" />
    </g>
  </g>
</svg>
