<?xml version="1.0" encoding="UTF-8" standalone="no"?>
<!-- Created with Inkscape (http://www.inkscape.org/) -->

<svg
   xmlns:dc="http://purl.org/dc/elements/1.1/"
   xmlns:cc="http://creativecommons.org/ns#"
   xmlns:rdf="http://www.w3.org/1999/02/22-rdf-syntax-ns#"
   xmlns:svg="http://www.w3.org/2000/svg"
   xmlns="http://www.w3.org/2000/svg"
   xmlns:sodipodi="http://sodipodi.sourceforge.net/DTD/sodipodi-0.dtd"
   xmlns:inkscape="http://www.inkscape.org/namespaces/inkscape"
   width="125.30005mm"
   height="33.573685mm"
   viewBox="0 0 125.30005 33.573685"
   version="1.1"
   id="svg5313"
   inkscape:version="0.92.1 r"
   sodipodi:docname="horizontal color.svg">
  <defs
     id="defs5307" />
  <sodipodi:namedview
     id="base"
     pagecolor="#ffffff"
     bordercolor="#666666"
     borderopacity="1.0"
     inkscape:pageopacity="0.0"
     inkscape:pageshadow="2"
     inkscape:zoom="1.4"
     inkscape:cx="289.84323"
     inkscape:cy="30.299586"
     inkscape:document-units="mm"
     inkscape:current-layer="layer1"
     showgrid="false"
     fit-margin-top="0"
     fit-margin-left="0"
     fit-margin-right="0"
     fit-margin-bottom="0"
     inkscape:window-width="1366"
     inkscape:window-height="744"
     inkscape:window-x="0"
     inkscape:window-y="0"
     inkscape:window-maximized="1" />
  <metadata
     id="metadata5310">
    <rdf:RDF>
      <cc:Work
         rdf:about="">
        <dc:format>image/svg+xml</dc:format>
        <dc:type
           rdf:resource="http://purl.org/dc/dcmitype/StillImage" />
        <dc:title></dc:title>
      </cc:Work>
    </rdf:RDF>
  </metadata>
  <g
     inkscape:label="Layer 1"
     inkscape:groupmode="layer"
     id="layer1"
     transform="translate(38.459548,-142.62983)">
    <g
       id="g20"
       transform="matrix(0.35277777,0,0,-0.35277777,-9.8026156,171.28676)">
      <path
         d="m 0,0 c 18.583,18.583 18.583,48.712 0,67.295 -18.583,18.583 -48.712,18.583 -67.295,0 C -85.878,48.712 -85.878,18.583 -67.295,0 -48.712,-18.583 -18.583,-18.583 0,0"
         style="fill:#00a69c;fill-opacity:1;fill-rule:nonzero;stroke:none"
         id="path22"
         inkscape:connector-curvature="0" />
    </g>
    <g
       id="g24"
       transform="matrix(0.35277777,0,0,-0.35277777,-30.029516,160.26711)">
      <path
         d="M 0,0 36.919,15.478 21.441,-21.441 16.91,-4.531 Z"
         style="fill:#ffffff;fill-opacity:1;fill-rule:nonzero;stroke:none"
         id="path26"
         inkscape:connector-curvature="0" />
    </g>
    <g
       id="g28"
       transform="matrix(0.35277777,0,0,-0.35277777,-27.697619,148.54233)">
      <path
         d="m 0,0 -13.733,-13.733 12.832,-12.833 19.354,8.113 z"
         style="fill:#ffffff;fill-opacity:1;fill-rule:nonzero;stroke:none"
         id="path30"
         inkscape:connector-curvature="0" />
    </g>
    <g
       id="g32"
       transform="matrix(0.35277777,0,0,-0.35277777,-10.740757,165.49916)">
      <path
         d="m 0,0 -13.733,-13.733 -12.833,12.832 8.113,19.354 z"
         style="fill:#ffffff;fill-opacity:1;fill-rule:nonzero;stroke:none"
         id="path34"
         inkscape:connector-curvature="0" />
    </g>
    <g
       id="g36"
       transform="matrix(0.35277777,0,0,-0.35277777,10.485811,161.37352)">
      <path
         d="m 0,0 v 14.142 c -1.12,1.33 -2.8,2.94 -6.23,2.94 -4.551,0 -7.141,-3.501 -7.141,-9.941 0,-5.881 2.31,-10.011 7.141,-10.011 3.009,0 4.83,0.979 6.23,2.87 M -12.812,-17.222 C -3.15,-16.452 0,-15.052 0,-9.871 v 0.98 c -2.17,-2.171 -4.9,-2.73 -7.701,-2.73 -8.541,0 -14.771,6.301 -14.771,18.762 0,11.55 6.09,18.692 14.841,18.692 3.221,0 5.74,-0.91 7.631,-2.73 v 1.889 H 9.101 V -5.951 c 0,-12.321 -3.361,-17.781 -16.872,-18.832 z"
         style="fill:#58595b;fill-opacity:1;fill-rule:nonzero;stroke:none"
         id="path38"
         inkscape:connector-curvature="0" />
    </g>
    <g
       id="g40"
       transform="matrix(0.35277777,0,0,-0.35277777,23.894823,158.87924)">
      <path
         d="m 0,0 c 0,6.021 -2.45,10.012 -7.141,10.012 -3.009,0 -4.9,-1.12 -6.23,-2.871 V -7 c 0.91,-1.471 3.08,-2.94 6.23,-2.94 C -2.59,-9.94 0,-6.37 0,0 m -13.371,-15.262 v -12.461 l -9.101,-4.131 v 49.776 h 9.101 v -2.59 c 1.61,2.03 4.131,3.431 7.701,3.431 8.82,0 14.772,-6.652 14.772,-18.763 0,-11.761 -6.301,-18.691 -14.842,-18.691 -3.571,0 -6.021,1.4 -7.631,3.429"
         style="fill:#58595b;fill-opacity:1;fill-rule:nonzero;stroke:none"
         id="path42"
         inkscape:connector-curvature="0" />
    </g>
    <g
       id="g44"
       transform="matrix(0.35277777,0,0,-0.35277777,28.758606,152.55683)">
      <path
         d="m 0,0 h 9.101 v -3.15 c 1.049,2.24 3.08,3.991 6.65,3.991 3.011,0 5.251,-1.051 7.281,-2.731 l -1.261,-8.331 c -1.679,1.191 -3.709,2.101 -6.51,2.101 -3.15,0 -6.16,-1.541 -6.16,-7.701 V -35.773 H 0 Z"
         style="fill:#58595b;fill-opacity:1;fill-rule:nonzero;stroke:none"
         id="path46"
         inkscape:connector-curvature="0" />
    </g>
    <g
       id="g48"
       transform="matrix(0.35277777,0,0,-0.35277777,45.03288,157.39719)">
      <path
         d="m 0,0 c -0.561,4.2 -3.291,6.58 -6.931,6.58 -4.27,0 -7.14,-2.1 -7.701,-6.58 z m -23.663,-4.131 c 0,11.551 6.511,18.693 16.732,18.693 8.821,0 15.822,-5.391 15.822,-16.873 0,-1.4 0,-3.43 -0.281,-5.39 h -23.312 c 0.35,-4.62 3.85,-7.211 7.771,-7.211 3.29,0 5.67,1.12 7.701,3.711 l 5.6,-5.671 c -3.01,-3.641 -7.35,-6.021 -13.301,-6.021 -10.361,0 -16.732,7 -16.732,18.762"
         style="fill:#58595b;fill-opacity:1;fill-rule:nonzero;stroke:none"
         id="path50"
         inkscape:connector-curvature="0" />
    </g>
    <g
       id="g52"
       transform="matrix(0.35277777,0,0,-0.35277777,57.009438,161.37352)">
      <path
         d="m 0,0 v 14.142 c -0.98,1.33 -3.08,2.94 -6.23,2.94 -4.551,0 -7.141,-3.501 -7.141,-9.941 0,-6.161 2.45,-10.011 7.141,-10.011 3.009,0 4.9,0.979 6.23,2.87 m -22.473,7.141 c 0,11.55 6.301,18.692 14.842,18.692 3.57,0 6.021,-1.4 7.631,-3.431 v 13.232 l 9.101,4.13 V -10.781 H 0 v 2.59 c -1.47,-2.17 -4.061,-3.43 -7.701,-3.43 -8.961,0 -14.772,6.65 -14.772,18.762"
         style="fill:#58595b;fill-opacity:1;fill-rule:nonzero;stroke:none"
         id="path54"
         inkscape:connector-curvature="0" />
    </g>
    <path
       d="m 62.515203,152.55669 h 3.21099 v 12.61992 h -3.21099 z m -0.27128,-3.3588 c 0,-1.03752 0.83961,-1.85208 1.87677,-1.85208 1.06222,0 1.87714,0.81456 1.87714,1.85208 0,1.03717 -0.81492,1.87678 -1.87714,1.87678 -1.03716,0 -1.87677,-0.83961 -1.87677,-1.87678"
       style="fill:#58595b;fill-opacity:1;fill-rule:nonzero;stroke:none;stroke-width:0.35277775"
       id="path56"
       inkscape:connector-curvature="0" />
    <g
       id="g58"
       transform="matrix(0.35277777,0,0,-0.35277777,67.404673,158.87924)">
      <path
         d="m 0,0 c 0,11.621 6.441,18.763 16.312,18.763 7.281,0 12.601,-3.221 14.912,-10.502 l -8.681,-2.87 c -1.051,2.73 -3.15,4.621 -6.021,4.621 -4.411,0 -7.281,-3.991 -7.281,-10.012 0,-6.09 2.87,-9.94 7.071,-9.94 3.081,0 5.25,1.82 6.3,5.18 l 8.682,-2.591 c -2.171,-7.56 -7.211,-11.34 -14.982,-11.34 C 6.441,-18.691 0,-11.761 0,0"
         style="fill:#58595b;fill-opacity:1;fill-rule:nonzero;stroke:none"
         id="path60"
         inkscape:connector-curvature="0" />
    </g>
    <g
       id="g62"
       transform="matrix(0.35277777,0,0,-0.35277777,80.666183,162.13902)">
      <path
         d="m 0,0 v 19.182 h -5.11 v 7.98 H 0 v 10.432 l 9.101,4.34 V 27.162 h 7.981 v -7.98 H 9.101 V 1.33 c 0,-1.751 0.91,-2.801 2.52,-2.801 1.89,0 3.851,0.491 5.881,1.54 l -1.051,-7.91 c -2.17,-1.051 -4.76,-1.61 -7.77,-1.61 C 2.521,-9.451 0,-5.951 0,0"
         style="fill:#58595b;fill-opacity:1;fill-rule:nonzero;stroke:none"
         id="path64"
         inkscape:connector-curvature="0" />
    </g>
  </g>
</svg>
